<?xml version="1.0" encoding="UTF-8"?>
<svg width="32" height="44" viewBox="0 0 32 44" xmlns="http://www.w3.org/2000/svg">
  <!-- Player walking pose 2 -->

  <!-- Body (slightly leaning forward, opposite lean) -->
  <rect x="3" y="16" width="24" height="16" fill="#4ECDC4" rx="2" transform="rotate(-2 15 24)"/>

  <!-- Head -->
  <rect x="6" y="4" width="20" height="16" fill="#FFE66D" rx="4"/>

  <!-- Eyes -->
  <rect x="9" y="8" width="3" height="3" fill="#000000"/>
  <rect x="20" y="8" width="3" height="3" fill="#000000"/>

  <!-- Mouth -->
  <rect x="14" y="13" width="4" height="2" fill="#000000" rx="1"/>

  <!-- Arms (opposite swing) -->
  <rect x="26" y="16" width="4" height="12" fill="#FFE66D" rx="2" transform="rotate(15 28 22)"/>
  <rect x="2" y="20" width="4" height="12" fill="#FFE66D" rx="2" transform="rotate(-15 4 26)"/>

  <!-- Legs (opposite stride) -->
  <rect x="20" y="32" width="6" height="8" fill="#4ECDC4" rx="1" transform="rotate(5 23 36)"/>
  <rect x="6" y="32" width="6" height="8" fill="#4ECDC4" rx="1" transform="rotate(-10 9 36)"/>

  <!-- Feet -->
  <rect x="20" y="40" width="8" height="4" fill="#FF6B6B" rx="2" transform="rotate(5 24 42)"/>
  <rect x="4" y="42" width="8" height="4" fill="#FF6B6B" rx="2" transform="rotate(-10 8 44)"/>
</svg>
