<?xml version="1.0" encoding="UTF-8"?>
<svg width="2400" height="1000" viewBox="0 0 2400 1000" xmlns="http://www.w3.org/2000/svg" data-difficulty="hard">
  <title>Sky Temple</title>
  <desc>Navigate floating platforms high in the clouds to reach the temple at the end</desc>

  <!-- Background with gradient and clouds -->
  <defs>
    <radialGradient id="skyGradient" cx="50%" cy="100%">
      <stop offset="0%" style="stop-color:#87CEEB"/>
      <stop offset="100%" style="stop-color:#4169E1"/>
    </radialGradient>
  </defs>

  <rect class="background" fill="url(#skyGradient)" data-stars="false" width="100%" height="100%"/>

  <!-- Decorative clouds -->
  <ellipse cx="300" cy="200" rx="80" ry="40" fill="#ffffff" opacity="0.8"/>
  <ellipse cx="800" cy="150" rx="100" ry="50" fill="#ffffff" opacity="0.7"/>
  <ellipse cx="1400" cy="180" rx="90" ry="45" fill="#ffffff" opacity="0.8"/>
  <ellipse cx="2000" cy="120" rx="110" ry="55" fill="#ffffff" opacity="0.6"/>

  <!-- Player starting position -->
  <circle class="player-start" cx="100" cy="800" r="16" fill="#4ecdc4" opacity="0.5"/>

  <!-- Ground and starting platforms -->
  <rect class="platform" x="0" y="840" width="400" height="160" fill="#654321"/>
  <rect class="platform" x="350" y="750" width="120" height="20" fill="#8b7355"/>

  <!-- Floating platform sequence -->
  <rect class="platform" x="500" y="650" width="100" height="20" fill="#8b7355"/>
  <rect class="platform moving" x="650" y="550" width="80" height="15" fill="#3498db" data-speed="1.5"/>
  <rect class="platform" x="800" y="450" width="120" height="20" fill="#8b7355"/>

  <!-- Ice platforms (slippery) -->
  <rect class="platform ice" x="980" y="380" width="100" height="15" fill="#74b9ff"/>
  <rect class="platform ice" x="1150" y="320" width="80" height="15" fill="#74b9ff"/>

  <!-- Moving platform section -->
  <rect class="platform moving" x="1300" y="400" width="100" height="20" fill="#3498db" data-speed="2"/>
  <rect class="platform moving" x="1500" y="300" width="90" height="20" fill="#3498db" data-speed="1"/>

  <!-- Breakable platforms (require careful timing) -->
  <rect class="platform breakable" x="1650" y="450" width="80" height="15" fill="#e17055"/>
  <rect class="platform breakable" x="1780" y="380" width="80" height="15" fill="#e17055"/>

  <!-- Final temple area -->
  <rect class="platform" x="1950" y="500" width="200" height="30" fill="#8b7355"/>
  <rect class="platform" x="2200" y="400" width="180" height="20" fill="#8b7355"/>

  <!-- Temple structure (decorative) -->
  <rect x="2020" y="350" width="60" height="150" fill="#d4af37" opacity="0.8"/>
  <polygon points="2000,350 2050,300 2100,350" fill="#d4af37" opacity="0.8"/>

  <!-- Collectibles strategically placed -->
  <circle class="collectible-coin" cx="420" cy="720" r="12" fill="#ffd700"/>
  <circle class="collectible-coin" cx="550" cy="620" r="12" fill="#ffd700"/>
  <circle class="collectible-gem" cx="730" cy="500" r="10" fill="#9c27b0"/>
  <circle class="collectible-coin" cx="850" cy="420" r="12" fill="#ffd700"/>
  <circle class="collectible-gem" cx="1030" cy="350" r="10" fill="#9c27b0"/>
  <circle class="collectible-coin" cx="1200" cy="290" r="12" fill="#ffd700"/>
  <circle class="collectible-star" cx="1400" cy="350" r="15" fill="#ffeb3b"/>
  <circle class="collectible-gem" cx="1700" cy="420" r="10" fill="#9c27b0"/>
  <circle class="collectible-star" cx="2050" cy="320" r="15" fill="#ffeb3b"/>
  <circle class="collectible-star" cx="2290" cy="370" r="15" fill="#ffeb3b"/>

  <!-- Enemies for added challenge -->
  <circle class="enemy-flying" cx="600" cy="500" r="14" fill="#5f27cd" data-patrol="120"/>
  <circle class="enemy-spike" cx="1000" cy="350" r="12" fill="#ff4757"/>
  <circle class="enemy-flying" cx="1350" cy="250" r="14" fill="#5f27cd" data-patrol="100"/>
  <circle class="enemy-goomba" cx="1900" cy="470" r="16" fill="#8b4513" data-patrol="80"/>

  <!-- Wind indicators (visual only) -->
  <path d="M 200,300 Q 250,280 300,300" stroke="#ffffff" stroke-width="2" fill="none" opacity="0.6"/>
  <path d="M 220,320 Q 270,300 320,320" stroke="#ffffff" stroke-width="2" fill="none" opacity="0.4"/>
  <path d="M 900,200 Q 950,180 1000,200" stroke="#ffffff" stroke-width="2" fill="none" opacity="0.6"/>
  <path d="M 1600,250 Q 1650,230 1700,250" stroke="#ffffff" stroke-width="2" fill="none" opacity="0.5"/>
</svg>
